<svg width="16" height="8" viewBox="0 0 16 8" fill="none" xmlns="http://www.w3.org/2000/svg">
<path d="M12.0002 8C10.96 7.99994 9.96063 7.59461 9.21423 6.87L9.21223 6.868C9.1261 6.80318 9.03363 6.74723 8.93623 6.701C8.64277 6.56611 8.32321 6.49748 8.00023 6.5C7.58623 6.5 7.27124 6.603 7.06524 6.701C6.9675 6.74717 6.87469 6.80312 6.78824 6.868L6.78623 6.87C6.31605 7.32646 5.74092 7.66041 5.11142 7.84249C4.48191 8.02457 3.81732 8.0492 3.17606 7.91422C2.5348 7.77924 1.93653 7.48877 1.43385 7.06837C0.93117 6.64796 0.539475 6.11049 0.293206 5.50322C0.046938 4.89595 -0.04636 4.23747 0.0215158 3.58569C0.0893916 2.9339 0.316362 2.30878 0.682471 1.76528C1.04858 1.22177 1.54261 0.776545 2.12113 0.468734C2.69965 0.160924 3.34493 -3.83304e-05 4.00024 6.84663e-09L8 0L12.0002 6.84663e-09C13.0611 6.84663e-09 14.0785 0.421427 14.8287 1.17157C15.5788 1.92172 16.0002 2.93913 16.0002 4C16.0002 5.06087 15.5788 6.07828 14.8287 6.82843C14.0785 7.57857 13.0611 8 12.0002 8Z" fill="black"/>
</svg>
